<svg width="90" height="91" viewBox="0 0 90 91" fill="none" xmlns="http://www.w3.org/2000/svg">
<path d="M3.74 80.618C3.62267 80.618 3.564 80.53 3.564 80.354C3.564 80.0167 3.806 79.6354 4.29 79.21C4.598 78.902 4.81067 78.6087 4.928 78.33C5.04533 78.0514 5.17733 77.5234 5.324 76.746L6.974 67.33H5.654C4.61267 67.33 3.894 67.44 3.498 67.66C3.11667 67.88 2.926 68.2834 2.926 68.87C2.926 69.2367 2.98467 69.552 3.102 69.816C3.21933 70.08 3.278 70.2414 3.278 70.3C3.278 70.476 3.168 70.7254 2.948 71.048C2.74267 71.3707 2.508 71.6567 2.244 71.906C1.98 72.1554 1.76733 72.28 1.606 72.28C1.54733 72.28 1.496 72.258 1.452 72.214C1.42267 72.1554 1.40067 72.1187 1.386 72.104C1.15133 71.6054 1.034 71.004 1.034 70.3C1.034 69.376 1.26867 68.54 1.738 67.792C2.20733 67.0294 2.86733 66.4354 3.718 66.01C4.56867 65.57 5.53667 65.35 6.622 65.35H11.33C12.2247 65.35 12.848 65.2547 13.2 65.064C13.5667 64.8734 13.75 64.5287 13.75 64.03C13.75 63.6927 13.6767 63.3847 13.53 63.106C13.3833 62.8274 13.31 62.6514 13.31 62.578C13.31 62.4607 13.4053 62.2407 13.596 61.918C13.8013 61.5954 14.0213 61.302 14.256 61.038C14.4907 60.7594 14.6667 60.62 14.784 60.62C14.828 60.62 14.8647 60.6347 14.894 60.664C14.9233 60.6787 14.9453 60.6934 14.96 60.708C15.1653 60.9574 15.3193 61.28 15.422 61.676C15.5247 62.0574 15.576 62.4607 15.576 62.886C15.576 64.2647 15.0627 65.35 14.036 66.142C13.024 66.934 11.6673 67.33 9.966 67.33H9.328L7.502 77.736C7.39933 78.176 7.22333 78.4987 6.974 78.704V78.726C7.22333 78.858 7.51667 78.924 7.854 78.924C8.05933 78.924 8.26467 78.8874 8.47 78.814C8.69 78.726 8.82933 78.682 8.888 78.682C8.96133 78.682 9.00533 78.6967 9.02 78.726C9.04933 78.7554 9.064 78.8067 9.064 78.88C9.064 79.012 9.02733 79.1367 8.954 79.254C8.88067 79.3714 8.83667 79.4447 8.822 79.474C8.47 79.8994 8.15467 80.2 7.876 80.376C7.59733 80.5374 7.326 80.618 7.062 80.618C6.93 80.618 6.76867 80.596 6.578 80.552C6.402 80.508 6.27733 80.4787 6.204 80.464C5.77867 80.332 5.412 80.266 5.104 80.266C4.78133 80.266 4.488 80.3247 4.224 80.442C3.96 80.5594 3.79867 80.618 3.74 80.618Z" fill="#EB00FF"/>
<path d="M16.2238 80.838C15.4611 80.838 15.0798 80.2587 15.0798 79.1C15.0798 78.66 15.1458 78.044 15.2778 77.252L15.9598 73.226C16.0185 72.9327 16.0478 72.6834 16.0478 72.478C16.0478 72.2874 15.9818 72.192 15.8498 72.192C15.7031 72.192 15.5418 72.2947 15.3658 72.5C15.2045 72.6907 14.9771 73.05 14.6838 73.578C14.6251 73.6954 14.5591 73.8054 14.4858 73.908C14.4125 73.996 14.3391 74.04 14.2658 74.04C14.1191 74.04 14.0458 73.9154 14.0458 73.666C14.0458 73.2847 14.2218 72.8154 14.5738 72.258C14.9258 71.686 15.3511 71.1947 15.8498 70.784C16.3631 70.3587 16.8545 70.146 17.3238 70.146C17.6465 70.146 17.8885 70.2487 18.0498 70.454C18.2258 70.6447 18.3138 70.9234 18.3138 71.29C18.3138 71.378 18.2991 71.5247 18.2698 71.73L17.3238 78.044V78.264C17.3238 78.3814 17.3385 78.4694 17.3678 78.528C17.3971 78.572 17.4558 78.594 17.5438 78.594C17.8811 78.594 18.2771 78.3227 18.7318 77.78C19.2011 77.2374 19.6338 76.548 20.0298 75.712C20.4258 74.8614 20.7045 74.0034 20.8658 73.138L21.0858 71.994C21.1885 71.4514 21.4598 71.0114 21.8998 70.674C22.3398 70.322 22.8238 70.146 23.3518 70.146C23.4691 70.146 23.5498 70.1607 23.5938 70.19C23.6525 70.2194 23.6818 70.278 23.6818 70.366C23.6818 70.4247 23.6451 70.542 23.5718 70.718C23.4985 70.894 23.4178 71.224 23.3298 71.708C23.1978 72.2214 22.8238 74.1354 22.2078 77.45C22.1345 77.7727 22.0978 78.0734 22.0978 78.352C22.0978 78.6307 22.1858 78.77 22.3618 78.77C22.5965 78.77 22.7945 78.6454 22.9558 78.396C23.1171 78.132 23.3518 77.6847 23.6598 77.054C23.7331 76.8487 23.8211 76.746 23.9238 76.746C24.0558 76.746 24.1218 76.8707 24.1218 77.12C24.1218 77.604 23.9605 78.1394 23.6378 78.726C23.3298 79.3127 22.9265 79.8114 22.4278 80.222C21.9291 80.6327 21.4305 80.838 20.9318 80.838C20.2425 80.838 19.8978 80.4054 19.8978 79.54C19.8978 79.1294 19.9711 78.5354 20.1178 77.758L20.0738 77.736C19.5018 78.6014 18.8711 79.3347 18.1818 79.936C17.4925 80.5374 16.8398 80.838 16.2238 80.838ZM26.1186 80.838C25.884 80.838 25.7666 80.7574 25.7666 80.596C25.7666 80.5374 25.8033 80.3834 25.8766 80.134C25.95 79.9434 26.0526 79.5767 26.1846 79.034C26.2873 78.6087 26.434 77.8387 26.6246 76.724C26.8153 75.6094 26.9913 74.524 27.1526 73.468C27.226 72.9987 27.2626 72.698 27.2626 72.566C27.2626 72.346 27.1966 72.236 27.0646 72.236C26.9326 72.236 26.764 72.3534 26.5586 72.588C26.3533 72.808 26.1333 73.138 25.8986 73.578C25.84 73.6954 25.774 73.8054 25.7006 73.908C25.6273 73.996 25.554 74.04 25.4806 74.04C25.334 74.04 25.2606 73.9154 25.2606 73.666C25.2606 73.27 25.4293 72.7934 25.7666 72.236C26.1186 71.664 26.544 71.1727 27.0426 70.762C27.556 70.3514 28.0473 70.146 28.5166 70.146C28.81 70.146 29.0446 70.2487 29.2206 70.454C29.3966 70.6594 29.4846 70.982 29.4846 71.422C29.4846 71.994 29.426 72.6467 29.3086 73.38H29.3306C30.9 71.224 32.22 70.146 33.2906 70.146C34.0386 70.146 34.4126 70.6667 34.4126 71.708C34.4126 72.1627 34.3466 72.72 34.2146 73.38C33.8626 75.096 33.6206 76.3134 33.4886 77.032C33.3566 77.736 33.2906 78.1614 33.2906 78.308C33.2906 78.616 33.3786 78.77 33.5546 78.77C33.9653 78.77 34.3833 78.198 34.8086 77.054C34.8966 76.8487 34.992 76.746 35.0946 76.746C35.2706 76.746 35.344 76.9294 35.3146 77.296C35.256 77.8094 35.0653 78.3447 34.7426 78.902C34.42 79.4594 34.0166 79.9214 33.5326 80.288C33.0633 80.6547 32.5866 80.838 32.1026 80.838C31.384 80.838 31.0246 80.354 31.0246 79.386C31.0246 79.0047 31.0686 78.5427 31.1566 78C31.2446 77.4574 31.3766 76.7607 31.5526 75.91C31.67 75.338 31.7726 74.766 31.8606 74.194C31.9633 73.622 32.022 73.16 32.0366 72.808V72.632C32.0366 72.3974 31.9633 72.28 31.8166 72.28C31.5673 72.28 31.2226 72.544 30.7826 73.072C30.3426 73.5854 29.9246 74.2307 29.5286 75.008C29.1473 75.7854 28.8833 76.5334 28.7366 77.252L28.3846 79.034C28.2966 79.474 28.0106 79.8847 27.5266 80.266C27.0573 80.6474 26.588 80.838 26.1186 80.838ZM38.8453 80.838C38.0826 80.838 37.4813 80.5814 37.0413 80.068C36.616 79.54 36.4033 78.8067 36.4033 77.868C36.4033 76.768 36.682 75.6167 37.2393 74.414C37.8113 73.1967 38.53 72.1847 39.3953 71.378C40.2753 70.5567 41.1553 70.146 42.0353 70.146C42.5193 70.146 42.9006 70.2854 43.1793 70.564C43.4726 70.8427 43.6193 71.246 43.6193 71.774C43.6193 72.434 43.4066 73.116 42.9813 73.82C42.556 74.5094 41.9693 75.1547 41.2213 75.756C40.488 76.3427 39.6593 76.8194 38.7353 77.186C38.7793 78.198 39.2266 78.704 40.0773 78.704C40.5466 78.704 40.9866 78.5574 41.3973 78.264C41.8226 77.9707 42.1966 77.5747 42.5193 77.076C42.5926 76.944 42.6586 76.8487 42.7173 76.79C42.776 76.7167 42.8346 76.68 42.8933 76.68C42.9813 76.68 43.04 76.7094 43.0693 76.768C43.0986 76.8267 43.1133 76.9294 43.1133 77.076C43.1133 77.5454 42.9006 78.0807 42.4753 78.682C42.0646 79.2834 41.5293 79.7967 40.8693 80.222C40.2093 80.6327 39.5346 80.838 38.8453 80.838ZM39.2853 75.382C39.608 75.382 39.938 75.272 40.2753 75.052C40.6126 74.8174 40.8913 74.5167 41.1113 74.15C41.3313 73.7834 41.4413 73.3874 41.4413 72.962C41.4413 72.434 41.2286 72.17 40.8033 72.17C40.3486 72.17 39.938 72.456 39.5713 73.028C39.2046 73.6 38.97 74.3627 38.8673 75.316C38.9553 75.36 39.0946 75.382 39.2853 75.382ZM57.0615 80.838C56.3428 80.838 55.7708 80.574 55.3455 80.046C54.9348 79.5034 54.7295 78.77 54.7295 77.846C54.7295 76.7314 55.0155 75.5727 55.5875 74.37C56.1741 73.1527 56.9295 72.148 57.8535 71.356C58.7921 70.5494 59.7528 70.146 60.7355 70.146C61.1901 70.146 61.5568 70.2414 61.8355 70.432C62.1288 70.608 62.2755 70.85 62.2755 71.158C62.2755 71.378 62.1508 71.7154 61.9015 72.17C61.7841 72.3754 61.6595 72.478 61.5275 72.478C61.4248 72.478 61.3368 72.434 61.2635 72.346C60.8675 71.95 60.4201 71.752 59.9215 71.752C59.3788 71.752 58.8875 71.9574 58.4475 72.368C58.0221 72.7787 57.6848 73.3434 57.4355 74.062C57.2008 74.766 57.0835 75.558 57.0835 76.438C57.0835 77.23 57.1861 77.8094 57.3915 78.176C57.6115 78.528 57.9561 78.704 58.4255 78.704C59.2028 78.704 59.8921 78.1614 60.4935 77.076C60.5668 76.9147 60.6255 76.812 60.6695 76.768C60.7281 76.7094 60.7941 76.68 60.8675 76.68C61.0141 76.68 61.0875 76.812 61.0875 77.076C61.0875 77.5747 60.8895 78.1247 60.4935 78.726C60.0975 79.3127 59.5841 79.8114 58.9535 80.222C58.3375 80.6327 57.7068 80.838 57.0615 80.838ZM63.8729 80.838C63.4182 80.838 63.0589 80.6107 62.7949 80.156C62.5455 79.7014 62.4209 79.0927 62.4209 78.33C62.4209 77.1127 62.7142 75.866 63.3009 74.59C63.9022 73.314 64.7162 72.258 65.7429 71.422C66.7695 70.5714 67.8769 70.146 69.0649 70.146C69.4462 70.146 69.8202 70.19 70.1869 70.278C70.5682 70.366 70.8762 70.476 71.1109 70.608C70.9789 70.9307 70.8909 71.1947 70.8469 71.4C70.8029 71.6054 70.7735 71.7374 70.7589 71.796C70.6562 72.324 70.5022 73.1307 70.2969 74.216C70.1062 75.2867 69.9229 76.3134 69.7469 77.296C69.6589 77.736 69.6149 78.0734 69.6149 78.308C69.6149 78.4694 69.6369 78.5867 69.6809 78.66C69.7395 78.7334 69.8202 78.77 69.9229 78.77C70.1722 78.77 70.3995 78.6234 70.6049 78.33C70.8102 78.022 71.0302 77.5967 71.2649 77.054C71.2942 76.966 71.3309 76.8927 71.3749 76.834C71.4189 76.7754 71.4775 76.746 71.5509 76.746C71.6829 76.746 71.7489 76.8487 71.7489 77.054C71.7489 77.1567 71.7415 77.2374 71.7269 77.296C71.6535 77.8534 71.4629 78.4107 71.1549 78.968C70.8469 79.5107 70.4655 79.958 70.0109 80.31C69.5709 80.662 69.1162 80.838 68.6469 80.838C68.2655 80.838 67.9649 80.6987 67.7449 80.42C67.5395 80.1414 67.4369 79.7674 67.4369 79.298C67.4369 79.1807 67.4515 79.0047 67.4809 78.77L67.5909 78.022H67.5469C67.0042 78.8434 66.3809 79.518 65.6769 80.046C64.9875 80.574 64.3862 80.838 63.8729 80.838ZM65.1269 78.66C65.4495 78.66 65.8602 78.374 66.3589 77.802C66.8722 77.23 67.3489 76.5114 67.7889 75.646C68.2289 74.766 68.5222 73.8934 68.6689 73.028L68.8229 72.17C68.4562 71.95 68.1189 71.84 67.8109 71.84C67.3415 71.84 66.8649 72.1334 66.3809 72.72C65.9115 73.292 65.5229 74.04 65.2149 74.964C64.9215 75.8734 64.7749 76.8047 64.7749 77.758C64.7749 78.11 64.7969 78.352 64.8409 78.484C64.8995 78.6014 64.9949 78.66 65.1269 78.66ZM69.0656 89.396C68.3322 89.396 67.6942 89.2347 67.1516 88.912C66.6089 88.604 66.1982 88.23 65.9196 87.79C65.6409 87.3647 65.5016 86.998 65.5016 86.69C65.5016 86.3674 65.6189 86.074 65.8536 85.81C66.0736 85.546 66.3302 85.3334 66.6236 85.172C66.9169 85.0107 67.1516 84.93 67.3276 84.93C67.3862 84.93 67.4302 84.952 67.4596 84.996C67.4889 85.04 67.5182 85.128 67.5476 85.26C67.7236 86.272 67.9729 86.976 68.2956 87.372C68.6036 87.7827 69.0509 87.988 69.6376 87.988C70.1949 87.988 70.6642 87.8194 71.0456 87.482C71.4122 87.1447 71.7276 86.602 71.9916 85.854C72.2556 85.106 72.4829 84.094 72.6736 82.818L74.1256 73.534C74.1842 73.1674 74.2136 72.8667 74.2136 72.632C74.2136 72.368 74.1402 72.236 73.9936 72.236C73.8322 72.236 73.6636 72.346 73.4876 72.566C73.3262 72.7714 73.1209 73.116 72.8716 73.6C72.8129 73.7174 72.7469 73.82 72.6736 73.908C72.6149 73.996 72.5489 74.04 72.4756 74.04C72.3142 74.04 72.2336 73.9154 72.2336 73.666C72.2336 73.2847 72.3949 72.8154 72.7176 72.258C73.0549 71.686 73.4729 71.1947 73.9716 70.784C74.4702 70.3587 74.9469 70.146 75.4016 70.146C75.7096 70.146 75.9516 70.256 76.1276 70.476C76.3036 70.6814 76.3916 70.9967 76.3916 71.422C76.3916 71.7007 76.3256 72.3534 76.1936 73.38H76.2156C76.7729 72.3827 77.3962 71.598 78.0856 71.026C78.7896 70.4394 79.4349 70.146 80.0216 70.146C80.5056 70.146 80.8869 70.3807 81.1656 70.85C81.4589 71.3194 81.6056 72.0234 81.6056 72.962C81.6056 74.3407 81.3196 75.6387 80.7476 76.856C80.1902 78.0587 79.4789 79.0267 78.6136 79.76C77.7629 80.4787 76.9269 80.838 76.1056 80.838C75.8562 80.838 75.5702 80.7794 75.2476 80.662L74.8736 82.664C74.6536 84.0134 74.2649 85.194 73.7076 86.206C73.1649 87.218 72.4976 88.0027 71.7056 88.56C70.8989 89.1174 70.0189 89.396 69.0656 89.396ZM76.6116 79.122C77.1396 79.122 77.6016 78.88 77.9976 78.396C78.4082 77.8974 78.7236 77.2447 78.9436 76.438C79.1636 75.6167 79.2736 74.7367 79.2736 73.798C79.2736 73.3287 79.2369 72.984 79.1636 72.764C79.0902 72.5294 78.9582 72.412 78.7676 72.412C78.4449 72.412 78.0489 72.6834 77.5796 73.226C77.1249 73.754 76.7142 74.4434 76.3476 75.294C75.9809 76.13 75.7389 76.9807 75.6216 77.846L75.4896 78.77C75.8269 79.0047 76.2009 79.122 76.6116 79.122ZM84.8004 80.838C84.0377 80.838 83.4364 80.5814 82.9964 80.068C82.571 79.54 82.3584 78.8067 82.3584 77.868C82.3584 76.768 82.637 75.6167 83.1944 74.414C83.7664 73.1967 84.485 72.1847 85.3504 71.378C86.2304 70.5567 87.1104 70.146 87.9904 70.146C88.4744 70.146 88.8557 70.2854 89.1344 70.564C89.4277 70.8427 89.5744 71.246 89.5744 71.774C89.5744 72.434 89.3617 73.116 88.9364 73.82C88.511 74.5094 87.9244 75.1547 87.1764 75.756C86.443 76.3427 85.6144 76.8194 84.6904 77.186C84.7344 78.198 85.1817 78.704 86.0324 78.704C86.5017 78.704 86.9417 78.5574 87.3524 78.264C87.7777 77.9707 88.1517 77.5747 88.4744 77.076C88.5477 76.944 88.6137 76.8487 88.6724 76.79C88.731 76.7167 88.7897 76.68 88.8484 76.68C88.9364 76.68 88.995 76.7094 89.0244 76.768C89.0537 76.8267 89.0684 76.9294 89.0684 77.076C89.0684 77.5454 88.8557 78.0807 88.4304 78.682C88.0197 79.2834 87.4844 79.7967 86.8244 80.222C86.1644 80.6327 85.4897 80.838 84.8004 80.838ZM85.2404 75.382C85.563 75.382 85.893 75.272 86.2304 75.052C86.5677 74.8174 86.8464 74.5167 87.0664 74.15C87.2864 73.7834 87.3964 73.3874 87.3964 72.962C87.3964 72.434 87.1837 72.17 86.7584 72.17C86.3037 72.17 85.893 72.456 85.5264 73.028C85.1597 73.6 84.925 74.3627 84.8224 75.316C84.9104 75.36 85.0497 75.382 85.2404 75.382Z" fill="black"/>
<path d="M47.52 80.838C46.816 80.838 46.2 80.706 45.672 80.442C45.1587 80.178 44.7627 79.8554 44.484 79.474C44.22 79.078 44.0733 78.6894 44.044 78.308C44.044 77.9414 44.1467 77.5454 44.352 77.12C44.572 76.68 44.8287 76.306 45.122 75.998C45.4153 75.69 45.6427 75.536 45.804 75.536C45.8773 75.536 45.9287 75.624 45.958 75.8C46.0753 76.6947 46.1927 77.3767 46.31 77.846C46.442 78.3007 46.6473 78.6527 46.926 78.902C47.2193 79.1367 47.652 79.254 48.224 79.254C49.016 79.254 49.61 79.0487 50.006 78.638C50.4167 78.2274 50.622 77.67 50.622 76.966C50.622 76.4967 50.534 76.086 50.358 75.734C50.182 75.382 49.8667 74.92 49.412 74.348L47.322 71.884C46.9993 71.5027 46.772 71.1507 46.64 70.828C46.5227 70.4907 46.464 70.1167 46.464 69.706C46.464 68.9434 46.6547 68.21 47.036 67.506C47.4173 66.802 47.9747 66.23 48.708 65.79C49.456 65.35 50.3433 65.13 51.37 65.13C52.2353 65.13 52.91 65.2987 53.394 65.636C53.8927 65.9734 54.142 66.45 54.142 67.066C54.142 67.3154 54.1053 67.5647 54.032 67.814C53.9587 68.0487 53.8633 68.2614 53.746 68.452C53.5847 68.7014 53.438 68.8774 53.306 68.98C53.1887 69.0827 53.0567 69.134 52.91 69.134C52.7487 69.134 52.6387 69.068 52.58 68.936C52.5213 68.7894 52.4773 68.5914 52.448 68.342C52.404 67.7847 52.25 67.3594 51.986 67.066C51.7367 66.758 51.2967 66.604 50.666 66.604C50.006 66.604 49.4927 66.7727 49.126 67.11C48.7593 67.4327 48.576 67.858 48.576 68.386C48.576 68.694 48.6347 68.98 48.752 69.244C48.8693 69.4934 49.0527 69.7647 49.302 70.058L51.414 72.478C51.9273 73.05 52.3013 73.6 52.536 74.128C52.7707 74.656 52.888 75.2134 52.888 75.8C52.888 76.68 52.6387 77.5087 52.14 78.286C51.6413 79.0634 50.974 79.6867 50.138 80.156C49.3167 80.6107 48.444 80.838 47.52 80.838Z" fill="#0500FF"/>
<path d="M23.3815 47.3289C25.7135 42.6677 30.3776 43.6388 32.4181 44.7069L32.7097 19.653C33.1761 18.2547 34.2643 17.3224 34.7502 17.0311L60.6041 8.00006L60.9856 42.085C61.2188 44.8817 58.5564 46.552 57.1961 47.0375C52.9984 48.2028 50.1999 46.552 49.3254 45.5809C46.7602 42.5511 48.2566 39.6573 49.3254 38.5891C52.3571 36.0255 56.03 36.7441 57.4876 37.4238V21.401L35.9162 28.1014V50.2421C35.9162 50.9413 35.5275 51.6987 35.3332 51.99C32.0683 56.1851 27.5597 55.0975 25.7135 54.0293C22.4487 51.9318 22.7985 48.6884 23.3815 47.3289Z" fill="#EB00FF"/>
<path d="M55.6936 51.334C54.6737 52.0646 53.4586 52.7431 52.0484 53.3696C50.6594 54.0276 49.196 54.5067 47.6582 54.8069C46.1205 55.1071 44.6346 55.1436 43.2005 54.9165C41.7663 54.6894 40.4891 54.0823 39.3687 53.0953C41.1822 53.3423 43.2259 53.0457 45.4996 52.2056C47.7522 51.3339 49.888 50.2202 51.9071 48.8645C54.5887 47.064 56.722 45.1967 58.307 43.2628C58.769 42.7238 59.262 42.0265 59.7862 41.1711C60.2891 40.2841 60.7446 39.3604 61.1524 38.4C61.5391 37.408 61.7678 36.4535 61.8386 35.5363C61.9409 34.598 61.7802 33.8133 61.3565 33.1824C61.06 32.7407 60.632 32.4101 60.0727 32.1906C59.5134 31.9711 58.7806 31.8682 57.8742 31.8817C57.3474 31.9151 56.6364 32.0492 55.7413 32.284C54.8566 32.4661 53.8877 32.659 52.8344 32.8627C51.7599 33.0349 50.701 33.128 49.6577 33.1419C48.5932 33.1244 47.6176 32.9326 46.7311 32.5667C45.855 32.148 45.1677 31.4652 44.6692 30.5183C43.9584 29.1189 43.6842 27.4493 43.8464 25.5095C44.019 23.517 44.5075 21.4497 45.312 19.3076C46.1268 17.1127 47.1473 14.9856 48.3737 12.9264C49.6315 10.846 50.9691 8.98666 52.3865 7.34838C53.8143 5.65737 55.2065 4.35643 56.5631 3.44557C57.9512 2.51352 59.3143 1.98732 60.6524 1.86697C62.022 1.72543 63.0622 2.35436 63.773 3.75375C64.0912 4.36398 64.1523 5.30706 63.9562 6.58296C63.7918 7.83769 63.5383 9.26661 63.1957 10.8697C62.8532 12.4728 62.5425 14.1233 62.2636 15.821C62.0161 17.4976 61.9371 19.084 62.0263 20.5803C62.1471 22.0555 62.578 23.2766 63.3189 24.2438C62.5388 24.1726 61.8531 23.9693 61.2618 23.634C60.702 23.2775 60.2421 22.8311 59.882 22.2948C59.3736 21.5376 59.0123 20.6588 58.7982 19.6583C58.5841 18.6577 58.4807 17.6516 58.4879 16.6398C58.4739 15.5964 58.5025 14.6847 58.5737 13.9045C58.7062 12.534 58.9651 11.1472 59.3504 9.74417C59.7358 8.34116 60.1792 6.99066 60.6808 5.69266C60.1215 5.47318 59.4948 5.59646 58.8008 6.06248C58.0752 6.54969 57.3608 7.25818 56.6578 8.18797C55.9862 9.09657 55.3832 10.0049 54.8487 10.9131C54.3246 11.7685 53.9683 12.3968 53.7799 12.7979C52.9106 14.4344 52.089 16.1761 51.3152 18.023C50.5729 19.8488 49.9359 21.6268 49.4041 23.357C48.9038 25.066 48.5663 26.5742 48.3914 27.8817C48.2269 29.1364 48.2932 30.0531 48.5902 30.6318C48.9719 31.3367 49.6372 31.7139 50.5859 31.7635C51.5134 31.7815 52.609 31.6409 53.8728 31.3416C55.1365 31.0423 56.4268 30.8167 57.7437 30.6648C59.5136 30.4377 60.9842 30.5487 62.1556 30.9981C63.3269 31.4474 64.2198 32.1295 64.8341 33.0444C65.5966 34.1801 65.9227 35.5861 65.8123 37.2622C65.6808 38.9068 65.133 40.5791 64.1689 42.2791C63.2991 43.7785 62.2709 45.1784 61.0842 46.4787C59.9291 47.7577 58.8313 48.8153 57.7906 49.6513C56.8027 50.4978 56.1037 51.0586 55.6936 51.334Z" fill="#0500FF"/>
<path d="M60.5258 8.00006L60.7 24.7143L57.6795 29.0001V21.1429L57.0649 14.0002L56 9.71452L60.5258 8.00006Z" fill="#EB00FF"/>
<path d="M49.4066 38.4147C52.4171 35.6377 59.4995 37.6783 60.9469 38.4147L60.9857 42.2014C61.2173 45.2307 58.5734 47.0399 57.2225 47.5659C53.054 48.8281 50.275 47.0399 49.4066 45.9881C46.8591 42.7063 48.3451 39.5717 49.4066 38.4147Z" fill="#EB00FF"/>
</svg>
