<svg width="114" height="103" viewBox="0 0 114 103" fill="none" xmlns="http://www.w3.org/2000/svg">
<path d="M9.65435 81.4998C13.6544 73.4998 21.6544 75.1665 25.1544 76.9998L25.6544 33.9998C26.4544 31.5998 28.321 29.9998 29.1544 29.4998L73.5 13.9998L74.1544 72.4998C74.5544 77.2998 69.9877 80.1665 67.6544 80.9998C60.4544 82.9998 55.6544 80.1665 54.1544 78.4998C49.7544 73.2998 52.321 68.3331 54.1544 66.4998C59.3544 62.0998 65.6544 63.3331 68.1544 64.4998V36.9998L31.1544 48.4998V86.4998C31.1544 87.6998 30.4877 88.9998 30.1544 89.4998C24.5544 96.6998 16.821 94.8331 13.6544 92.9998C8.05435 89.3998 8.65435 83.8331 9.65435 81.4998Z" fill="#EB00FF"/>
<path d="M65.1404 88.5709C63.3869 89.827 61.2979 90.9936 58.8733 92.0707C56.4852 93.202 53.9692 94.0258 51.3253 94.5419C48.6814 95.058 46.1267 95.1207 43.661 94.7302C41.1954 94.3397 38.9994 93.296 37.073 91.5991C40.1911 92.0236 43.7048 91.5137 47.614 90.0693C51.4868 88.5707 55.1589 86.6559 58.6303 84.3251C63.2407 81.2294 66.9086 78.019 69.6338 74.694C70.428 73.7673 71.2757 72.5685 72.1768 71.0978C73.0416 69.5729 73.8246 67.9847 74.5258 66.3335C75.1906 64.628 75.5839 62.9868 75.7055 61.4099C75.8814 59.7966 75.6051 58.4476 74.8767 57.3628C74.3668 56.6034 73.6311 56.035 72.6695 55.6577C71.7079 55.2803 70.4479 55.1033 68.8896 55.1266C67.9838 55.1839 66.7615 55.4144 65.2226 55.8182C63.7015 56.1312 62.0355 56.4629 60.2246 56.8132C58.3773 57.1092 56.5568 57.2692 54.763 57.2933C52.9327 57.2631 51.2555 56.9334 49.7313 56.3042C48.2249 55.5844 47.0432 54.4105 46.1862 52.7825C44.9642 50.3765 44.4927 47.506 44.7716 44.1709C45.0683 40.7452 45.9082 37.1908 47.2913 33.5079C48.6923 29.7342 50.4469 26.0772 52.5553 22.5368C54.7179 18.9599 57.0177 15.7631 59.4547 12.9465C61.9094 10.0391 64.303 7.8024 66.6353 6.23635C69.0219 4.63389 71.3655 3.72919 73.6661 3.52227C76.0209 3.27893 77.8094 4.36025 79.0314 6.76621C79.5784 7.81539 79.6834 9.43681 79.3464 11.6305C79.0636 13.7877 78.6278 16.2445 78.0389 19.0007C77.45 21.7569 76.9158 24.5945 76.4362 27.5135C76.0108 30.396 75.8749 33.1236 76.0283 35.6961C76.236 38.2323 76.9768 40.3318 78.2507 41.9947C76.9094 41.8723 75.7304 41.5228 74.7138 40.9463C73.7514 40.3334 72.9606 39.5659 72.3415 38.6438C71.4674 37.342 70.8463 35.831 70.4783 34.1108C70.1102 32.3906 69.9323 30.6607 69.9447 28.9211C69.9207 27.1273 69.9698 25.5597 70.0923 24.2184C70.32 21.862 70.7652 19.4777 71.4277 17.0655C72.0901 14.6533 72.8526 12.3314 73.715 10.0998C72.7534 9.72243 71.6759 9.93437 70.4826 10.7356C69.2351 11.5733 68.0069 12.7914 66.7981 14.39C65.6436 15.9521 64.6068 17.5139 63.6879 19.0753C62.7867 20.546 62.1742 21.6262 61.8503 22.3158C60.3556 25.1294 58.943 28.1239 57.6126 31.2993C56.3364 34.4384 55.2412 37.4953 54.3269 40.47C53.4668 43.4083 52.8865 46.0015 52.5858 48.2494C52.303 50.4066 52.417 51.9827 52.9276 52.9776C53.5839 54.1895 54.7277 54.8381 56.3588 54.9233C57.9535 54.9543 59.8372 54.7125 62.0099 54.198C64.1827 53.6834 66.4011 53.2956 68.6653 53.0344C71.7082 52.6438 74.2366 52.8348 76.2505 53.6073C78.2644 54.3799 79.7995 55.5526 80.8556 57.1256C82.1667 59.0782 82.7274 61.4955 82.5376 64.3772C82.3114 67.2047 81.3695 70.0799 79.7121 73.0027C78.2166 75.5808 76.4488 77.9875 74.4086 80.2231C72.4226 82.4222 70.535 84.2405 68.7459 85.6779C67.0474 87.1331 65.8456 88.0974 65.1404 88.5709Z" fill="#0500FF"/>
<path d="M73.5 13.9998L73.8272 43.2498L68.1544 50.7498V36.9998L67 24.5001L65 17.0001L73.5 13.9998Z" fill="#EB00FF"/>
<path d="M54.1544 66.4998C59.3544 62.0998 71.5873 65.3331 74.0873 66.4998L74.1544 72.4998C74.5544 77.2998 69.9877 80.1665 67.6544 80.9998C60.4544 82.9998 55.6544 80.1665 54.1544 78.4998C49.7544 73.2998 52.321 68.3331 54.1544 66.4998Z" fill="#EB00FF"/>
</svg>
