<svg width="21" height="24" viewBox="0 0 21 24" fill="none" xmlns="http://www.w3.org/2000/svg">
<path d="M16.2067 3.10118V1.36785C16.2067 0.912293 15.8289 0.534515 15.3734 0.534515C14.9178 0.534515 14.5401 0.912293 14.5401 1.36785V3.03452H7.31786V1.36785C7.31786 0.912293 6.94009 0.534515 6.48453 0.534515C6.02897 0.534515 5.6512 0.912293 5.6512 1.36785V3.10118C2.6512 3.37896 1.19564 5.16785 0.973419 7.8234C0.951196 8.14563 1.21786 8.41229 1.52897 8.41229H20.3289C20.6512 8.41229 20.9178 8.13452 20.8845 7.8234C20.6623 5.16785 19.2067 3.37896 16.2067 3.10118Z" fill="black"/>
<path d="M19.8176 10.0788H2.03982C1.42871 10.0788 0.928711 10.5788 0.928711 11.1899V18.0343C0.928711 21.3676 2.59538 23.5899 6.48427 23.5899H15.3732C19.262 23.5899 20.9287 21.3676 20.9287 18.0343V11.1899C20.9287 10.5788 20.4287 10.0788 19.8176 10.0788ZM7.82871 19.3788C7.77316 19.4232 7.7176 19.4788 7.66205 19.5121C7.59538 19.5565 7.52871 19.5899 7.46204 19.6121C7.39538 19.6454 7.32871 19.6676 7.26204 19.6788C7.18427 19.6899 7.1176 19.701 7.03982 19.701C6.89538 19.701 6.75093 19.6676 6.6176 19.6121C6.47316 19.5565 6.36204 19.4788 6.25093 19.3788C6.05093 19.1676 5.92871 18.8788 5.92871 18.5899C5.92871 18.301 6.05093 18.0121 6.25093 17.801C6.36204 17.701 6.47316 17.6232 6.6176 17.5676C6.8176 17.4788 7.03982 17.4565 7.26204 17.501C7.32871 17.5121 7.39538 17.5343 7.46204 17.5676C7.52871 17.5899 7.59538 17.6232 7.66205 17.6676C7.7176 17.7121 7.77316 17.7565 7.82871 17.801C8.02871 18.0121 8.15093 18.301 8.15093 18.5899C8.15093 18.8788 8.02871 19.1676 7.82871 19.3788ZM7.82871 15.4899C7.6176 15.6899 7.32871 15.8121 7.03982 15.8121C6.75093 15.8121 6.46204 15.6899 6.25093 15.4899C6.05093 15.2788 5.92871 14.9899 5.92871 14.701C5.92871 14.4121 6.05093 14.1232 6.25093 13.9121C6.56204 13.601 7.05093 13.501 7.46204 13.6788C7.60649 13.7343 7.72871 13.8121 7.82871 13.9121C8.02871 14.1232 8.15093 14.4121 8.15093 14.701C8.15093 14.9899 8.02871 15.2788 7.82871 15.4899ZM11.7176 19.3788C11.5065 19.5788 11.2176 19.701 10.9287 19.701C10.6398 19.701 10.3509 19.5788 10.1398 19.3788C9.93982 19.1676 9.8176 18.8788 9.8176 18.5899C9.8176 18.301 9.93982 18.0121 10.1398 17.801C10.5509 17.3899 11.3065 17.3899 11.7176 17.801C11.9176 18.0121 12.0398 18.301 12.0398 18.5899C12.0398 18.8788 11.9176 19.1676 11.7176 19.3788ZM11.7176 15.4899C11.662 15.5343 11.6065 15.5788 11.5509 15.6232C11.4843 15.6676 11.4176 15.701 11.3509 15.7232C11.2843 15.7565 11.2176 15.7788 11.1509 15.7899C11.0732 15.801 11.0065 15.8121 10.9287 15.8121C10.6398 15.8121 10.3509 15.6899 10.1398 15.4899C9.93982 15.2788 9.8176 14.9899 9.8176 14.701C9.8176 14.4121 9.93982 14.1232 10.1398 13.9121C10.2398 13.8121 10.362 13.7343 10.5065 13.6788C10.9176 13.501 11.4065 13.601 11.7176 13.9121C11.9176 14.1232 12.0398 14.4121 12.0398 14.701C12.0398 14.9899 11.9176 15.2788 11.7176 15.4899ZM15.6065 19.3788C15.3954 19.5788 15.1065 19.701 14.8176 19.701C14.5287 19.701 14.2398 19.5788 14.0287 19.3788C13.8287 19.1676 13.7065 18.8788 13.7065 18.5899C13.7065 18.301 13.8287 18.0121 14.0287 17.801C14.4398 17.3899 15.1954 17.3899 15.6065 17.801C15.8065 18.0121 15.9287 18.301 15.9287 18.5899C15.9287 18.8788 15.8065 19.1676 15.6065 19.3788ZM15.6065 15.4899C15.5509 15.5343 15.4954 15.5788 15.4398 15.6232C15.3732 15.6676 15.3065 15.701 15.2398 15.7232C15.1732 15.7565 15.1065 15.7788 15.0398 15.7899C14.962 15.801 14.8843 15.8121 14.8176 15.8121C14.5287 15.8121 14.2398 15.6899 14.0287 15.4899C13.8287 15.2788 13.7065 14.9899 13.7065 14.701C13.7065 14.4121 13.8287 14.1232 14.0287 13.9121C14.1398 13.8121 14.2509 13.7343 14.3954 13.6788C14.5954 13.5899 14.8176 13.5676 15.0398 13.6121C15.1065 13.6232 15.1732 13.6454 15.2398 13.6788C15.3065 13.701 15.3732 13.7343 15.4398 13.7788L15.6065 13.9121C15.8065 14.1232 15.9287 14.4121 15.9287 14.701C15.9287 14.9899 15.8065 15.2788 15.6065 15.4899Z" fill="black"/>
</svg>
