<svg width="16" height="16" viewBox="0 0 16 16" fill="none" xmlns="http://www.w3.org/2000/svg">
<g clip-path="url(#clip0_215_91)">
<path d="M0.4875 9.6525C0.616793 9.6525 0.740791 9.70386 0.832215 9.79528C0.923639 9.88671 0.975 10.0107 0.975 10.14V12.5775C0.975 12.8361 1.07772 13.0841 1.26057 13.2669C1.44342 13.4498 1.69141 13.5525 1.95 13.5525H13.65C13.9086 13.5525 14.1566 13.4498 14.3394 13.2669C14.5223 13.0841 14.625 12.8361 14.625 12.5775V10.14C14.625 10.0107 14.6764 9.88671 14.7678 9.79528C14.8592 9.70386 14.9832 9.6525 15.1125 9.6525C15.2418 9.6525 15.3658 9.70386 15.4572 9.79528C15.5486 9.88671 15.6 10.0107 15.6 10.14V12.5775C15.6 13.0947 15.3946 13.5907 15.0289 13.9564C14.6632 14.3221 14.1672 14.5275 13.65 14.5275H1.95C1.43283 14.5275 0.936838 14.3221 0.571142 13.9564C0.205446 13.5907 0 13.0947 0 12.5775V10.14C0 10.0107 0.0513615 9.88671 0.142785 9.79528C0.234209 9.70386 0.358207 9.6525 0.4875 9.6525Z" fill="black"/>
<path d="M7.45481 11.5577C7.50009 11.6031 7.55389 11.6391 7.61311 11.6637C7.67234 11.6882 7.73583 11.7009 7.79996 11.7009C7.86408 11.7009 7.92757 11.6882 7.9868 11.6637C8.04603 11.6391 8.09982 11.6031 8.14511 11.5577L11.0701 8.63266C11.1616 8.54112 11.2131 8.41696 11.2131 8.28751C11.2131 8.15805 11.1616 8.0339 11.0701 7.94236C10.9786 7.85082 10.8544 7.79939 10.725 7.79939C10.5955 7.79939 10.4713 7.85082 10.3798 7.94236L8.28746 10.0357V1.46251C8.28746 1.33321 8.2361 1.20922 8.14467 1.11779C8.05325 1.02637 7.92925 0.975006 7.79996 0.975006C7.67066 0.975006 7.54667 1.02637 7.45524 1.11779C7.36382 1.20922 7.31246 1.33321 7.31246 1.46251V10.0357L5.22011 7.94236C5.12857 7.85082 5.00441 7.79939 4.87496 7.79939C4.7455 7.79939 4.62135 7.85082 4.52981 7.94236C4.43827 8.0339 4.38684 8.15805 4.38684 8.28751C4.38684 8.41696 4.43827 8.54112 4.52981 8.63266L7.45481 11.5577Z" fill="black"/>
</g>
<defs>
<clipPath id="clip0_215_91">
<rect width="15.6" height="15.6" fill="white"/>
</clipPath>
</defs>
</svg>
