<svg width="22" height="22" viewBox="0 0 22 22" fill="none" xmlns="http://www.w3.org/2000/svg">
<g clip-path="url(#clip0_208_71)">
<path d="M14.85 2.7C13.284 2.7 11.781 3.429 10.8 4.581C9.81905 3.429 8.31605 2.7 6.75005 2.7C3.97805 2.7 1.80005 4.878 1.80005 7.65C1.80005 11.052 4.86005 13.824 9.49505 18.036L10.8 19.215L12.105 18.027C16.74 13.824 19.8 11.052 19.8 7.65C19.8 4.878 17.622 2.7 14.85 2.7ZM10.89 16.695L10.8 16.785L10.71 16.695C6.42605 12.816 3.60005 10.251 3.60005 7.65C3.60005 5.85 4.95005 4.5 6.75005 4.5C8.13605 4.5 9.48605 5.391 9.96305 6.624H11.646C12.114 5.391 13.464 4.5 14.85 4.5C16.65 4.5 18 5.85 18 7.65C18 10.251 15.174 12.816 10.89 16.695Z" fill="black"/>
</g>
<defs>
<clipPath id="clip0_208_71">
<rect width="21.6" height="21.6" fill="white"/>
</clipPath>
</defs>
</svg>
