<svg width="22" height="20" viewBox="0 0 22 20" fill="none" xmlns="http://www.w3.org/2000/svg">
<path d="M9.12481 19.125C8.9259 19.125 8.73513 19.046 8.59448 18.9053C8.45383 18.7647 8.37481 18.5739 8.37481 18.375V11.1637L1.42231 3.5175C1.14862 3.21591 0.968362 2.84136 0.903401 2.43931C0.83844 2.03727 0.891572 1.62501 1.05635 1.25257C1.22113 0.880135 1.49047 0.563532 1.83168 0.341188C2.17289 0.118845 2.5713 0.000320709 2.97856 0H19.0211C19.4283 0.000320709 19.8267 0.118845 20.1679 0.341188C20.5092 0.563532 20.7785 0.880135 20.9433 1.25257C21.108 1.62501 21.1612 2.03727 21.0962 2.43931C21.0313 2.84136 20.851 3.21591 20.5773 3.5175L13.6248 11.1637V15.375C13.6247 15.4873 13.5994 15.5982 13.5507 15.6995C13.5021 15.8008 13.4313 15.8898 13.3436 15.96L9.59356 18.96C9.4606 19.0667 9.29527 19.1249 9.12481 19.125ZM2.97856 1.5C2.86185 1.50029 2.74773 1.5344 2.65001 1.5982C2.55228 1.66201 2.47515 1.75276 2.42793 1.85949C2.38072 1.96622 2.36545 2.08435 2.38397 2.19958C2.4025 2.31481 2.45402 2.4222 2.53231 2.50875L9.67981 10.3837C9.80227 10.5184 9.87157 10.693 9.87481 10.875V16.815L12.1248 15V10.875C12.1244 10.6878 12.1939 10.5073 12.3198 10.3688L19.4673 2.49375C19.5409 2.40681 19.5885 2.30081 19.6044 2.188C19.6203 2.07519 19.604 1.96018 19.5573 1.85625C19.5107 1.75232 19.4355 1.66372 19.3406 1.60068C19.2458 1.53764 19.135 1.50273 19.0211 1.5H2.97856Z" fill="#797979"/>
</svg>
