<svg width="22" height="22" viewBox="0 0 22 22" fill="none" xmlns="http://www.w3.org/2000/svg">
<g clip-path="url(#clip0_208_74)">
<path d="M18 1.8H7.20005C6.21005 1.8 5.40005 2.61 5.40005 3.6V14.4C5.40005 15.39 6.21005 16.2 7.20005 16.2H18C18.99 16.2 19.8 15.39 19.8 14.4V3.6C19.8 2.61 18.99 1.8 18 1.8ZM16.2 6.3H13.5V11.25C13.5 11.8467 13.263 12.419 12.841 12.841C12.4191 13.2629 11.8468 13.5 11.25 13.5C10.6533 13.5 10.081 13.2629 9.65906 12.841C9.2371 12.419 9.00005 11.8467 9.00005 11.25C9.00005 10.6533 9.2371 10.081 9.65906 9.65901C10.081 9.23706 10.6533 9 11.25 9C11.763 9 12.222 9.171 12.6 9.459V4.5H16.2V6.3ZM3.60005 5.4H1.80005V18C1.80005 18.99 2.61005 19.8 3.60005 19.8H16.2V18H3.60005V5.4Z" fill="black"/>
</g>
<defs>
<clipPath id="clip0_208_74">
<rect width="21.6" height="21.6" fill="white"/>
</clipPath>
</defs>
</svg>
