<svg width="22" height="22" viewBox="0 0 22 22" fill="none" xmlns="http://www.w3.org/2000/svg">
<path d="M19.9653 10.6523L11.8147 2.50594L11.2683 1.95961C11.1438 1.83595 10.9755 1.76655 10.8 1.76655C10.6246 1.76655 10.4562 1.83595 10.3318 1.95961L1.63481 10.6523C1.50726 10.7794 1.40645 10.9307 1.33834 11.0974C1.27023 11.264 1.2362 11.4426 1.23825 11.6227C1.24668 12.3652 1.86473 12.9579 2.60723 12.9579H3.50372V19.8281H18.0964V12.9579H19.0118C19.3725 12.9579 19.7122 12.8166 19.9674 12.5613C20.0931 12.4361 20.1926 12.2871 20.2603 12.1231C20.3281 11.9591 20.3626 11.7832 20.3618 11.6058C20.3618 11.2472 20.2205 10.9076 19.9653 10.6523ZM11.9813 18.3094H9.61879V14.0062H11.9813V18.3094ZM16.5776 11.4391V18.3094H13.3313V13.5C13.3313 13.0338 12.9537 12.6562 12.4875 12.6562H9.11254C8.64637 12.6562 8.26879 13.0338 8.26879 13.5V18.3094H5.02247V11.4391H2.99747L10.8022 3.64078L11.2894 4.12805L18.6047 11.4391H16.5776Z" fill="black"/>
</svg>
