<svg width="10" height="9" viewBox="0 0 10 9" fill="none" xmlns="http://www.w3.org/2000/svg">
<path fill-rule="evenodd" clip-rule="evenodd" d="M7.35363 0.646423L8.85363 2.14642L9.20718 2.49998L8.85363 2.85353L7.35363 4.35353L6.64652 3.64642L7.29297 2.99998H3.00008C2.36304 2.99998 2.01314 3.25421 1.80584 3.54213C1.58018 3.85554 1.50008 4.24666 1.50008 4.49998H0.500075C0.500075 4.08663 0.619966 3.47774 0.994308 2.95782C1.38701 2.41241 2.03712 1.99998 3.00008 1.99998H7.29297L6.64652 1.35353L7.35363 0.646423ZM2.14652 8.85353L0.646522 7.35353L0.292969 6.99998L0.646522 6.64642L2.14652 5.14642L2.85363 5.85353L2.20718 6.49998H6.50008C7.13712 6.49998 7.48701 6.24574 7.69431 5.95782C7.91997 5.64441 8.00008 5.2533 8.00008 4.99998H9.00008C9.00008 5.41332 8.88018 6.02221 8.50584 6.54213C8.11314 7.08754 7.46304 7.49998 6.50008 7.49998H2.20718L2.85363 8.14642L2.14652 8.85353Z" fill="white"/>
</svg>
