<svg width="16" height="17" viewBox="0 0 16 17" fill="none" xmlns="http://www.w3.org/2000/svg">
<path fill-rule="evenodd" clip-rule="evenodd" d="M9.5 0.792908V2.00001V15V16.1019L8.67075 15.3763L4.81213 12H1H0.5V11.5V6.00001V5.50001H1H4.79289L8.64645 1.64646L9.5 0.792908ZM8.5 3.20712L5.35355 6.35357L5.20711 6.50001H5H1.5V11H5H5.18787L5.32925 11.1237L8.5 13.8981V3.20712ZM12.4241 8.50001L10.5659 5.24808L11.4341 4.75194L13 7.49223L14.5659 4.75194L15.4341 5.24808L13.5759 8.50001L15.4341 11.7519L14.5659 12.2481L13 9.5078L11.4341 12.2481L10.5659 11.7519L12.4241 8.50001Z" fill="white"/>
</svg>
