<svg width="16" height="16" viewBox="0 0 16 16" fill="none" xmlns="http://www.w3.org/2000/svg">
<rect width="16" height="16" rx="2" fill="url(#paint0_linear_232_67)"/>
<path fill-rule="evenodd" clip-rule="evenodd" d="M7.50573 4.1966C7.51214 4.16718 7.52373 4.1397 7.53949 4.11515C7.55935 4.08408 7.58532 4.05859 7.61506 4.03957C7.66998 4.00443 7.73774 3.99134 7.80346 4.00579C7.82302 4.01005 7.84172 4.0166 7.85928 4.02514L9.67158 4.85835C9.79703 4.91603 9.85197 5.06448 9.7943 5.18992C9.73662 5.31537 9.58817 5.37031 9.46272 5.31264L8 4.64015V7.75006C8 8.57849 7.32843 9.25006 6.5 9.25006C5.67157 9.25006 5 8.57849 5 7.75006C5 6.92163 5.67157 6.25006 6.5 6.25006C6.88418 6.25006 7.23462 6.39449 7.5 6.63201V4.25539V4.25006C7.5 4.23171 7.50198 4.21382 7.50573 4.1966ZM6.5 6.75006C7.05228 6.75006 7.5 7.19778 7.5 7.75006C7.5 8.30235 7.05228 8.75006 6.5 8.75006C5.94772 8.75006 5.5 8.30235 5.5 7.75006C5.5 7.19778 5.94772 6.75006 6.5 6.75006ZM5.5 10.0001C5.36193 10.0001 5.25 10.112 5.25 10.2501C5.25 10.3881 5.36193 10.5001 5.5 10.5001H11.5C11.6381 10.5001 11.75 10.3881 11.75 10.2501C11.75 10.112 11.6381 10.0001 11.5 10.0001H5.5ZM9.25 8.25006C9.25 8.11199 9.36193 8.00006 9.5 8.00006H11.5C11.6381 8.00006 11.75 8.11199 11.75 8.25006C11.75 8.38813 11.6381 8.50006 11.5 8.50006H9.5C9.36193 8.50006 9.25 8.38813 9.25 8.25006ZM9.5 6.00006C9.36193 6.00006 9.25 6.11199 9.25 6.25006C9.25 6.38813 9.36193 6.50006 9.5 6.50006H11.5C11.6381 6.50006 11.75 6.38813 11.75 6.25006C11.75 6.11199 11.6381 6.00006 11.5 6.00006H9.5Z" fill="white"/>
<defs>
<linearGradient id="paint0_linear_232_67" x1="0" y1="0" x2="16" y2="16" gradientUnits="userSpaceOnUse">
<stop stop-color="#0500FF"/>
<stop offset="1" stop-color="#AE32FF"/>
</linearGradient>
</defs>
</svg>
