<svg width="14" height="14" viewBox="0 0 14 14" fill="none" xmlns="http://www.w3.org/2000/svg">
<path fill-rule="evenodd" clip-rule="evenodd" d="M13.8999 5V1H12.8999L12.8999 5H8.8999V6H12.8999H13.8999V5Z" fill="white"/>
<path fill-rule="evenodd" clip-rule="evenodd" d="M11.874 10.5C10.7848 12.0141 9.00753 13 7 13C3.68629 13 1 10.3137 1 7C1 3.68629 3.68629 1 7 1C9.79576 1 12.1449 2.91216 12.811 5.5H13.8389C13.1522 2.35482 10.3511 0 7 0C3.13401 0 0 3.13401 0 7C0 10.866 3.13401 14 7 14C9.59099 14 11.8532 12.5923 13.0635 10.5H11.874Z" fill="white"/>
</svg>
