<svg width="12" height="12" viewBox="0 0 12 12" fill="none" xmlns="http://www.w3.org/2000/svg">
<g clip-path="url(#clip0_207_56)">
<path d="M8.05724 1.69274C8.90122 2.53663 9.37541 3.68122 9.37548 4.87473C9.37555 6.06823 8.9015 7.21288 8.05761 8.05687C7.21372 8.90085 6.06913 9.37504 4.87563 9.37511C3.68212 9.37518 2.53747 8.90113 1.69349 8.05724C0.8495 7.21336 0.375314 6.06876 0.375244 4.87526C0.375174 3.68175 0.849224 2.5371 1.69311 1.69312C2.537 0.849134 3.68159 0.374948 4.8751 0.374878C6.0686 0.374808 7.21325 0.848858 8.05724 1.69274ZM7.26223 2.48774C6.6293 1.85471 5.77081 1.49903 4.87563 1.49896C3.98044 1.49889 3.1219 1.85443 2.48886 2.48737C1.85582 3.12031 1.50014 3.9788 1.50007 4.87398C1.5 5.76916 1.85555 6.62771 2.48849 7.26074C3.12391 7.88115 3.97826 8.22611 4.86631 8.22083C5.75436 8.21556 6.60455 7.86048 7.23256 7.23256C7.86057 6.60465 8.21579 5.75452 8.2212 4.86647C8.22661 3.97842 7.88179 3.12402 7.26149 2.48849L7.26223 2.48774Z" fill="black"/>
<path d="M7.79243 6.5625C7.73401 6.66629 7.6841 6.77464 7.64318 6.8865C7.52693 7.19925 7.47068 7.52325 7.51418 7.8495C7.55543 8.16075 7.68818 8.445 7.91918 8.67675C8.0211 8.77903 8.15845 8.83821 8.3028 8.84202C8.44714 8.84583 8.58743 8.79399 8.6946 8.69722C8.80178 8.60046 8.86763 8.46618 8.87854 8.3222C8.88944 8.17821 8.84456 8.03555 8.75318 7.92375L8.71493 7.881C8.66624 7.83285 8.63598 7.76915 8.62943 7.701C8.61368 7.58475 8.63993 7.434 8.69693 7.27875C8.72018 7.218 8.74193 7.17 8.75693 7.14225L8.76593 7.12575C8.80296 7.06178 8.82703 6.99114 8.83677 6.91787C8.8465 6.84459 8.84171 6.77012 8.82266 6.6987C8.80361 6.62728 8.77068 6.56031 8.72575 6.50162C8.68083 6.44292 8.62478 6.39365 8.56081 6.35662C8.49684 6.31959 8.4262 6.29552 8.35293 6.28579C8.27965 6.27605 8.20518 6.28085 8.13376 6.29989C8.06234 6.31894 7.99537 6.35187 7.93668 6.3968C7.87798 6.44173 7.82871 6.49778 7.79168 6.56175L7.79243 6.5625Z" fill="black"/>
<path d="M7.16781 8.74424C7.19631 8.73074 7.23531 8.71424 7.28031 8.69624C7.43556 8.63849 7.58631 8.61224 7.70181 8.62724C7.76181 8.63474 7.80906 8.65274 7.85031 8.68499L7.88106 8.71199C7.98769 8.81135 8.12873 8.86544 8.27445 8.86287C8.42018 8.8603 8.55922 8.80127 8.66228 8.69821C8.76534 8.59515 8.82437 8.45611 8.82694 8.31038C8.82951 8.16466 8.77542 8.02362 8.67606 7.91699C8.45339 7.69324 8.16211 7.55063 7.84881 7.51199C7.52256 7.46849 7.19856 7.52549 6.88581 7.64324C6.74406 7.69574 6.63381 7.75049 6.56106 7.79324C6.44064 7.86381 6.35075 7.97663 6.30887 8.10978C6.267 8.24293 6.27612 8.3869 6.33447 8.51369C6.39282 8.64049 6.49623 8.74107 6.62459 8.79587C6.75296 8.85068 6.89712 8.8558 7.02906 8.81024L7.07856 8.78999L7.16781 8.74424Z" fill="black"/>
<path d="M10.0973 11.3565L10.0673 11.3235L7.38679 8.17948C6.93754 7.65223 7.65304 6.93748 8.18029 7.38673L11.3235 10.0672L11.3565 10.0972C11.4 10.1415 11.448 10.2 11.493 10.2772C11.6798 10.596 11.6798 10.9972 11.3775 11.3347L11.3348 11.3775C10.9973 11.6797 10.5953 11.6797 10.2765 11.493C10.211 11.4553 10.1505 11.4095 10.0965 11.3565H10.0973ZM10.56 10.8945L10.893 10.5615C10.8791 10.5465 10.8632 10.5333 10.8458 10.5225C10.776 10.4812 10.6485 10.4812 10.5833 10.5405L10.7393 10.7145L10.8945 10.56L10.899 10.5652L10.734 10.758L10.7145 10.74L10.7393 10.7145L10.758 10.7347L10.5653 10.8997L10.56 10.8945ZM10.5398 10.5832C10.4813 10.6492 10.4813 10.776 10.5225 10.8457C10.5332 10.8631 10.546 10.879 10.5608 10.893L10.7145 10.74L10.5398 10.5832Z" fill="black"/>
</g>
<defs>
<clipPath id="clip0_207_56">
<rect width="12" height="12" fill="white"/>
</clipPath>
</defs>
</svg>
