<svg width="22" height="22" viewBox="0 0 22 22" fill="none" xmlns="http://www.w3.org/2000/svg">
<circle cx="11" cy="11" r="10.5" stroke="white"/>
<path d="M15 6C16.3333 7.33333 18.2 11 15 15" stroke="white" stroke-linecap="round"/>
<path d="M17 5C18.8333 6.83333 21.4 11.7 17 16.5" stroke="white" stroke-linecap="round"/>
<path d="M5.42944 5C3.59611 6.83333 1.02944 11.7 5.42944 16.5" stroke="white" stroke-linecap="round"/>
<path d="M6.76685 15C5.43351 13.6667 3.56685 10 6.76685 6" stroke="white" stroke-linecap="round"/>
<circle cx="11" cy="11" r="4" fill="white"/>
<path d="M9.04016 12.3471C9.28564 11.9504 9.77659 12.0331 9.99138 12.124L10.0221 9.99174C10.0712 9.87273 10.1857 9.79339 10.2369 9.7686L12.9583 9L12.9985 11.9008C13.023 12.1389 12.7428 12.281 12.5996 12.3223C12.1577 12.4215 11.8632 12.281 11.7711 12.1984C11.5011 11.9405 11.6586 11.6942 11.7711 11.6033C12.0902 11.3851 12.4768 11.4463 12.6303 11.5042V10.1405L10.3596 10.7108V12.5951C10.3596 12.6546 10.3187 12.719 10.2982 12.7438C9.95456 13.1009 9.47997 13.0083 9.28564 12.9174C8.94197 12.7389 8.97879 12.4628 9.04016 12.3471Z" fill="black"/>
</svg>
