<svg width="16" height="17" viewBox="0 0 16 17" fill="none" xmlns="http://www.w3.org/2000/svg">
<path fill-rule="evenodd" clip-rule="evenodd" d="M9.5 0.792908V2.00001V15V16.1019L8.67075 15.3763L4.81213 12H1H0.5V11.5V6.00001V5.50001H1H4.79289L8.64645 1.64646L9.5 0.792908ZM8.5 3.20712L5.35355 6.35357L5.20711 6.50001H5H1.5V11H5H5.18787L5.32925 11.1237L8.5 13.8981V3.20712ZM11.2829 7.75121C11.1336 6.92294 10.6132 6.2452 10.1799 5.88412L10.8201 5.1159C11.3868 5.58816 12.0664 6.46042 12.2671 7.57382C12.4741 8.72246 12.1569 10.0502 10.8536 11.3536L10.1464 10.6465C11.2431 9.54982 11.4259 8.54423 11.2829 7.75121ZM14.3452 6.88736C14.0508 5.22811 13.0373 4.00906 12.2059 3.40438L12.7941 2.59565C13.796 3.32431 14.9825 4.75525 15.3298 6.71267C15.6813 8.69394 15.1589 11.1318 12.8817 13.823L12.1183 13.177C14.2411 10.6683 14.6353 8.52276 14.3452 6.88736Z" fill="white"/>
</svg>
