<svg width="24" height="24" viewBox="0 0 24 24" fill="none" xmlns="http://www.w3.org/2000/svg">
<path d="M13.2358 0.808594C12.9977 0.314453 12.4946 0 11.942 0C11.3895 0 10.8908 0.314453 10.6483 0.808594L7.75979 6.75176L1.30901 7.7041C0.769943 7.78496 0.320724 8.1623 0.154513 8.67891C-0.0116978 9.19551 0.123068 9.76601 0.509396 10.1479L5.19026 14.7793L4.08518 21.3244C3.99533 21.8635 4.21994 22.4115 4.66467 22.7305C5.1094 23.0494 5.69787 23.0898 6.18303 22.8338L11.9465 19.7566L17.71 22.8338C18.1951 23.0898 18.7836 23.0539 19.2283 22.7305C19.6731 22.407 19.8977 21.8635 19.8078 21.3244L18.6983 14.7793L23.3791 10.1479C23.7655 9.76601 23.9047 9.19551 23.734 8.67891C23.5633 8.1623 23.1186 7.78496 22.5795 7.7041L16.1242 6.75176L13.2358 0.808594Z" fill="white"/>
</svg>
