<svg width="40" height="40" viewBox="0 0 40 40" fill="none" xmlns="http://www.w3.org/2000/svg">
<path fill-rule="evenodd" clip-rule="evenodd" d="M6.71738 6.66709C5.36781 8.01665 4.5835 10.1426 4.5835 13.2832V21.6165C4.5835 25.6754 5.40627 27.7068 6.65663 28.8008C7.94827 29.931 10.0223 30.3665 13.3335 30.3665H14.1668C14.6411 30.3665 15.097 30.5153 15.455 30.6943C15.8153 30.8745 16.203 31.1484 16.4893 31.5189L16.5003 31.5331L16.5002 31.5332L19.0002 34.8665C19.3488 35.3313 19.723 35.4665 20.0002 35.4665C20.2773 35.4665 20.6516 35.3313 21.0002 34.8665C21.4144 34.3143 22.1979 34.2023 22.7502 34.6165C23.3024 35.0308 23.4144 35.8143 23.0002 36.3665C22.2488 37.3684 21.173 37.9665 20.0002 37.9665C18.8273 37.9665 17.7516 37.3684 17.0002 36.3665L14.5119 33.0489C14.5084 33.0452 14.496 33.0325 14.4713 33.0135C14.4364 32.9865 14.3902 32.957 14.337 32.9304C14.2836 32.9037 14.2343 32.8855 14.1958 32.875C14.1751 32.8693 14.1624 32.8672 14.1578 32.8665H13.3335C9.97806 32.8665 7.05206 32.4687 5.01037 30.6823C2.92738 28.8596 2.0835 25.891 2.0835 21.6165V13.2832C2.0835 9.75719 2.96585 6.88309 4.94961 4.89932C6.93338 2.91555 9.80748 2.0332 13.3335 2.0332H26.6668C30.1928 2.0332 33.0669 2.91555 35.0507 4.89932C37.0345 6.88309 37.9168 9.75719 37.9168 13.2832V21.6165C37.9168 22.3069 37.3572 22.8665 36.6668 22.8665C35.9765 22.8665 35.4168 22.3069 35.4168 21.6165V13.2832C35.4168 10.1426 34.6325 8.01665 33.2829 6.66709C31.9334 5.31752 29.8075 4.5332 26.6668 4.5332H13.3335C10.1928 4.5332 8.06695 5.31752 6.71738 6.66709Z" fill="black"/>
<path fill-rule="evenodd" clip-rule="evenodd" d="M25.6782 25.6782C26.9128 24.4436 28.5873 23.75 30.3333 23.75C32.0793 23.75 33.7538 24.4436 34.9885 25.6782C36.2231 26.9128 36.9167 28.5873 36.9167 30.3333C36.9167 31.6592 36.5167 32.9439 35.7836 34.026C35.8182 34.0539 35.8517 34.0839 35.8839 34.1161L37.5506 35.7828C38.0387 36.2709 38.0387 37.0624 37.5506 37.5506C37.0624 38.0387 36.2709 38.0387 35.7828 37.5506L34.1161 35.8839C34.0839 35.8517 34.0539 35.8182 34.026 35.7836C32.9439 36.5167 31.6592 36.9167 30.3333 36.9167C28.5873 36.9167 26.9128 36.2231 25.6782 34.9885C24.4436 33.7538 23.75 32.0793 23.75 30.3333C23.75 28.5873 24.4436 26.9128 25.6782 25.6782ZM30.3333 26.25C29.2504 26.25 28.2118 26.6802 27.446 27.446C26.6802 28.2118 26.25 29.2504 26.25 30.3333C26.25 31.4163 26.6802 32.4549 27.446 33.2207C28.2118 33.9865 29.2504 34.4167 30.3333 34.4167C31.4163 34.4167 32.4549 33.9865 33.2207 33.2207C33.9865 32.4549 34.4167 31.4163 34.4167 30.3333C34.4167 29.2504 33.9865 28.2118 33.2207 27.446C32.4549 26.6802 31.4163 26.25 30.3333 26.25Z" fill="#FF3C32"/>
<path fill-rule="evenodd" clip-rule="evenodd" d="M11.6582 18.3332C11.6582 17.4127 12.4044 16.6665 13.3249 16.6665H13.3382C14.2587 16.6665 15.0049 17.4127 15.0049 18.3332C15.0049 19.2536 14.2587 19.9998 13.3382 19.9998H13.3249C12.4044 19.9998 11.6582 19.2536 11.6582 18.3332ZM18.3249 18.3332C18.3249 17.4127 19.0711 16.6665 19.9915 16.6665H20.0082C20.9287 16.6665 21.6749 17.4127 21.6749 18.3332C21.6749 19.2536 20.9287 19.9998 20.0082 19.9998H19.9915C19.0711 19.9998 18.3249 19.2536 18.3249 18.3332ZM24.9932 18.3332C24.9932 17.4127 25.7394 16.6665 26.6599 16.6665H26.6765C27.597 16.6665 28.3432 17.4127 28.3432 18.3332C28.3432 19.2536 27.597 19.9998 26.6765 19.9998H26.6599C25.7394 19.9998 24.9932 19.2536 24.9932 18.3332Z" fill="black"/>
</svg>
