<svg width="24" height="24" viewBox="0 0 24 24" fill="none" xmlns="http://www.w3.org/2000/svg">
<path d="M12 0C5.373 0 0 5.373 0 12C0 18.627 5.373 24 12 24C18.627 24 24 18.627 24 12C24 5.373 18.627 0 12 0ZM18.464 9.535C18.47 9.668 18.473 9.8 18.473 9.932C18.473 14 15.378 18.688 9.717 18.688C7.978 18.688 6.361 18.179 5 17.305C5.241 17.334 5.486 17.347 5.735 17.347C7.178 17.347 8.504 16.856 9.556 16.029C8.209 16.004 7.072 15.114 6.681 13.892C6.869 13.928 7.062 13.947 7.26 13.947C7.541 13.947 7.814 13.909 8.071 13.839C6.663 13.557 5.602 12.313 5.602 10.822C5.602 10.809 5.602 10.796 5.602 10.783C6.017 11.014 6.491 11.152 6.996 11.168C6.171 10.617 5.627 9.674 5.627 8.607C5.627 8.042 5.778 7.513 6.043 7.06C7.561 8.922 9.829 10.148 12.386 10.276C12.334 10.051 12.307 9.816 12.307 9.575C12.307 7.876 13.685 6.497 15.384 6.497C16.269 6.497 17.069 6.871 17.63 7.469C18.331 7.33 18.99 7.075 19.585 6.722C19.355 7.441 18.867 8.043 18.231 8.425C18.853 8.351 19.446 8.186 19.999 7.941C19.588 8.559 19.067 9.1 18.464 9.535Z" fill="white"/>
</svg>
