<svg width="22" height="22" viewBox="0 0 22 22" fill="none" xmlns="http://www.w3.org/2000/svg">
<path d="M10.9329 9.68203C10.9171 9.66186 10.8969 9.64555 10.8739 9.63433C10.8509 9.62312 10.8256 9.61729 10.8 9.61729C10.7744 9.61729 10.7491 9.62312 10.7261 9.63433C10.7031 9.64555 10.6829 9.66186 10.6671 9.68203L8.3046 12.671C8.28512 12.6959 8.27304 12.7257 8.26973 12.7572C8.26641 12.7886 8.27201 12.8203 8.28587 12.8487C8.29974 12.8771 8.32131 12.901 8.34812 12.9177C8.37493 12.9344 8.4059 12.9432 8.43749 12.9431H9.99632V18.0563C9.99632 18.1491 10.0723 18.225 10.1651 18.225H11.4307C11.5235 18.225 11.5994 18.1491 11.5994 18.0563V12.9452H13.1625C13.3038 12.9452 13.3819 12.7828 13.2954 12.6731L10.9329 9.68203Z" fill="black"/>
<path d="M17.1154 7.73508C16.1494 5.18695 13.6877 3.375 10.8042 3.375C7.92068 3.375 5.45904 5.18484 4.49294 7.73297C2.68521 8.20758 1.34998 9.855 1.34998 11.8125C1.34998 14.1434 3.23787 16.0313 5.56662 16.0313H6.41248C6.50529 16.0313 6.58123 15.9553 6.58123 15.8625V14.5969C6.58123 14.5041 6.50529 14.4281 6.41248 14.4281H5.56662C4.85576 14.4281 4.18708 14.1455 3.68927 13.6329C3.19357 13.1224 2.9299 12.4348 2.9531 11.7218C2.97208 11.1649 3.16193 10.6418 3.50576 10.2009C3.85802 9.75164 4.35162 9.42469 4.90005 9.27914L5.69951 9.07031L5.99271 8.29828C6.17412 7.81734 6.42724 7.36805 6.74576 6.96094C7.0602 6.55743 7.43268 6.20272 7.85107 5.90836C8.71802 5.29875 9.73896 4.97602 10.8042 4.97602C11.8694 4.97602 12.8904 5.29875 13.7573 5.90836C14.1771 6.20367 14.5483 6.55805 14.8626 6.96094C15.1811 7.36805 15.4343 7.81945 15.6157 8.29828L15.9068 9.0682L16.7041 9.27914C17.8474 9.58711 18.6469 10.627 18.6469 11.8125C18.6469 12.5107 18.3747 13.1688 17.8811 13.6624C17.6391 13.9059 17.3511 14.0989 17.0339 14.2304C16.7168 14.3618 16.3767 14.429 16.0333 14.4281H15.1875C15.0947 14.4281 15.0187 14.5041 15.0187 14.5969V15.8625C15.0187 15.9553 15.0947 16.0313 15.1875 16.0313H16.0333C18.3621 16.0313 20.25 14.1434 20.25 11.8125C20.25 9.85711 18.919 8.2118 17.1154 7.73508Z" fill="black"/>
</svg>
