<svg width="24" height="24" viewBox="0 0 24 24" fill="none" xmlns="http://www.w3.org/2000/svg">
<circle cx="12" cy="12" r="12" fill="white"/>
<path d="M12.5 6C10.085 6 6.9505 6.60509 6.9505 6.60509L6.94261 6.61411C5.84269 6.79002 5 7.73517 5 8.88462V12.3462V12.3473V15.8077V15.8088C5.00107 16.3578 5.19781 16.8884 5.55488 17.3053C5.91196 17.7223 6.40598 17.9983 6.94824 18.0838L6.9505 18.0872C6.9505 18.0872 10.085 18.6934 12.5 18.6934C14.915 18.6934 18.0495 18.0872 18.0495 18.0872L18.0506 18.0861C18.5935 18.0008 19.0881 17.7245 19.4454 17.3071C19.8028 16.8896 19.9994 16.3583 20 15.8088V15.8077V12.3473V12.3462V8.88462C19.9992 8.33546 19.8026 7.80459 19.4455 7.38739C19.0884 6.97019 18.5942 6.69401 18.0518 6.60847L18.0495 6.60509C18.0495 6.60509 14.915 6 12.5 6ZM10.7692 9.69141L15.3846 12.3462L10.7692 15.0009V9.69141Z" fill="black"/>
</svg>
